<svg width="26" height="25" viewBox="0 0 26 25" fill="none" xmlns="http://www.w3.org/2000/svg">
<path d="M20.295 24.0699C20.2155 24.0699 20.136 24.0429 20.0654 23.9891L18.2198 22.6061C16.4625 21.2949 15.4646 19.3642 15.4646 17.3256V13.7155C15.4646 13.6077 15.5088 13.5 15.5882 13.4281C15.6677 13.3563 15.7737 13.3114 15.8796 13.3293C17.7517 13.491 19.094 12.9971 19.9859 11.8117C20.0565 11.7129 20.1713 11.659 20.295 11.659C20.4186 11.659 20.5246 11.7129 20.604 11.8117C21.4959 12.9881 22.8382 13.482 24.7103 13.3293C24.8163 13.3204 24.9222 13.3563 25.0017 13.4281C25.0812 13.5 25.1253 13.6077 25.1253 13.7155V17.3256C25.1253 18.4931 24.7898 19.6515 24.154 20.6753C23.6948 21.4117 23.0943 22.0673 22.3702 22.6061L20.5246 23.9891C20.4628 24.0429 20.3744 24.0699 20.295 24.0699ZM16.2329 14.1286V17.3166C16.2329 19.1037 17.1248 20.801 18.679 21.9685L20.295 23.1808L21.911 21.9685C22.5556 21.4835 23.0943 20.8998 23.5005 20.2442C24.0568 19.3462 24.3571 18.3314 24.3571 17.3166V14.1286C22.6263 14.2094 21.2663 13.6975 20.295 12.6468C19.3236 13.6975 17.9637 14.1915 16.2329 14.1286Z" fill="white" stroke="white" stroke-width="0.5"/>
<path d="M11.2439 12.1006C8.63889 12.1006 6.51953 9.57707 6.51953 6.47884C6.51953 3.3806 8.63889 0.857117 11.2439 0.857117C13.849 0.857117 15.9683 3.3806 15.9683 6.47884C15.9683 9.57707 13.849 12.1006 11.2439 12.1006ZM11.2439 1.63841C9.06276 1.63841 7.29663 3.81166 7.29663 6.47884C7.29663 9.14601 9.07159 11.3193 11.2439 11.3193C13.4251 11.3193 15.1912 9.14601 15.1912 6.47884C15.1912 3.81166 13.4163 1.63841 11.2439 1.63841Z" fill="white" stroke="white" stroke-width="0.5"/>
<path d="M14.0506 13.7971C13.9181 13.7971 13.7857 13.7252 13.715 13.5905C13.5649 13.3211 13.5296 13.1864 13.4678 12.9349L13.0086 11.1209C12.9556 10.9144 13.0792 10.6988 13.2912 10.645C13.5031 10.5911 13.7062 10.7168 13.7592 10.9323L14.2007 12.6835C14.2714 12.9619 14.289 13.0248 14.395 13.2133C14.501 13.4019 14.4303 13.6444 14.2449 13.7432C14.1742 13.7791 14.1124 13.7971 14.0506 13.7971Z" fill="white" stroke="white" stroke-width="0.5"/>
<path d="M1.25534 21.3501C1.21119 21.3501 1.16703 21.3411 1.12288 21.3232C0.919776 21.2513 0.822638 21.0268 0.893284 20.8203L2.2797 16.9407C2.60643 16.0247 3.3747 15.4051 4.28426 15.3063L5.08785 15.2165C5.54704 15.1716 5.97975 15.0369 6.39479 14.8124L6.78334 14.6058C7.51628 14.2197 8.06378 13.5192 8.28455 12.6751L8.77024 10.9508C8.83205 10.7443 9.04399 10.6186 9.24709 10.6814C9.4502 10.7443 9.57383 10.9598 9.51201 11.1664L9.02633 12.8906C8.74374 13.9413 8.05495 14.8214 7.13656 15.3063L6.74801 15.5129C6.24467 15.7733 5.71483 15.9349 5.16733 15.9978L4.36373 16.0876C3.74559 16.1505 3.22458 16.5815 3.00381 17.2102L1.6174 21.0897C1.55558 21.2513 1.41429 21.3501 1.25534 21.3501Z" fill="white" stroke="white" stroke-width="0.5"/>
<path d="M2.30246 18.032L1.25816 20.9285C0.78819 22.2319 1.75399 23.6068 3.13961 23.6068H20.0005" stroke="white" stroke-width="1.3"/>
</svg>
