<svg width="36" height="44" viewBox="0 0 36 44" fill="none" xmlns="http://www.w3.org/2000/svg">
<path d="M36 36.0887L24.858 43.8261L22.5247 29.025L17.9629 29.9059L13.3882 29.0225L11.0678 43.8261L0 36.0887C0 36.0887 1.85352 27.3727 1.48282 7.88332C1.48282 4.74458 14.1817 8.91038e-06 17.9629 0C21.7441 -8.91035e-06 34.443 4.37961 34.443 7.88332C33.8499 28.0296 36 36.0887 36 36.0887Z" fill="#171D29"/>
<path d="M6.26086 18.0461C6.26086 18.0461 8.8993 21.8909 15.1743 19.642H15.215C15.215 19.642 14.5805 15.6521 10.4912 15.6521C6.40187 15.6521 6.26086 18.0461 6.26086 18.0461Z" fill="#232730"/>
<path d="M25.5793 15.6521C21.4195 15.6521 20.8555 19.642 20.8555 19.642H20.8749C27.3614 21.7458 29.7391 18.0461 29.7391 18.0461C29.7391 18.0461 29.7391 15.6521 25.5793 15.6521Z" fill="#232730"/>
</svg>
