<svg width="78" height="83" viewBox="0 0 78 83" fill="none" xmlns="http://www.w3.org/2000/svg">
<path d="M50.7016 70.2092H27.1909C23.2724 67.683 15.4355 58.3863 15.4355 41.4098C15.4355 24.4333 30.5496 2 38.9462 2C47.3429 2 62.4569 23.2207 62.4569 41.4098C62.4569 59.5989 50.7016 70.2092 50.7016 70.2092Z" stroke="#3772FF" stroke-width="3.82684"/>
<path d="M15.4347 42.9277L2.92792 57.0384C2.3507 57.6897 2.14981 58.5924 2.39637 59.427L8.41553 79.8002C8.56949 80.3213 9.16983 80.5619 9.64103 80.2912L27.19 70.2114" stroke="#3772FF" stroke-width="3.82684"/>
<path d="M62.121 42.9238L74.6277 57.0345C75.205 57.6858 75.4059 58.5885 75.1593 59.4231L69.1401 79.7963C68.9862 80.3174 68.3858 80.558 67.9146 80.2873L50.3656 70.2075" stroke="#3772FF" stroke-width="3.82684"/>
</svg>
