<svg width="22" height="22" viewBox="0 0 22 22" fill="none" xmlns="http://www.w3.org/2000/svg">
<path d="M20.2907 7.07479C19.2666 4.6575 17.3425 2.73333 14.9252 1.70928C13.6827 1.18605 12.3481 0.916504 11 0.916504C9.65183 0.916504 8.31727 1.18605 7.07479 1.70928C4.6575 2.73333 2.73333 4.6575 1.70928 7.07479C1.18605 8.31727 0.916504 9.65183 0.916504 11C0.916504 12.3481 1.18605 13.6827 1.70928 14.9252C2.73333 17.3425 4.6575 19.2666 7.07479 20.2907C8.31727 20.8139 9.65183 21.0835 11 21.0835C12.3481 21.0835 13.6827 20.8139 14.9252 20.2907C17.3425 19.2666 19.2666 17.3425 20.2907 14.9252C20.8139 13.6827 21.0835 12.3481 21.0835 11C21.0835 9.65183 20.8139 8.31727 20.2907 7.07479ZM11 19.25C6.45089 19.25 2.74999 15.5491 2.74999 11C2.74999 6.45089 6.45089 2.74999 11 2.74999C15.5491 2.74999 19.25 6.45089 19.25 11C19.25 15.5491 15.5491 19.25 11 19.25Z" fill="white"/>
<path d="M11.9165 10.6202V5.50002C11.9165 5.25694 11.82 5.02382 11.6481 4.85194C11.4762 4.68006 11.2431 4.5835 11 4.5835C10.7569 4.5835 10.5238 4.68006 10.3519 4.85194C10.1801 5.02382 10.0835 5.25694 10.0835 5.50002V11C10.0834 11.1204 10.1071 11.2396 10.1532 11.3508C10.1993 11.462 10.2668 11.563 10.3521 11.648L13.1021 14.398C13.1871 14.4836 13.2881 14.5515 13.3995 14.5979C13.5108 14.6444 13.6302 14.6683 13.7508 14.6685C13.8714 14.6687 13.9909 14.6451 14.1024 14.599C14.2139 14.5529 14.3151 14.4853 14.4004 14.4C14.4857 14.3147 14.5533 14.2134 14.5993 14.1019C14.6454 13.9904 14.669 13.8709 14.6687 13.7503C14.6685 13.6297 14.6445 13.5103 14.598 13.399C14.5516 13.2877 14.4836 13.1866 14.398 13.1016L11.9165 10.6202Z" fill="white"/>
</svg>
