<svg width="76" height="75" viewBox="0 0 76 75" fill="none" xmlns="http://www.w3.org/2000/svg">
<path d="M61 58.5C69.7249 58.5 75.5 54.2827 75.5 45.5603V13.3219C75.5 9.10508 74.4921 6.99209 72 4C69.0079 1.00791 66.1221 0 61.9028 0H13.5464C4.8215 0 0 4.59703 0 13.3219V45.5603C0 54.2852 7.75123 58.5 16.4761 58.5H16.7723V68.3927C16.7723 70.5 16.4761 72.9834 18.8336 73.9301C19.782 74.3109 20.7677 74.5001 21.7435 74.5001C23.7772 74.5001 25.7587 73.6936 27.2099 72.1926L40.0504 58.5H61ZM36.7836 54.9996L21.7435 69.9576C21.6763 70.0273 21.6265 70.0796 21.4846 70.0174C21.3129 69.9477 21.3129 69.8356 21.3129 69.7361V57.6482C21.3129 55.5871 19.6426 53.9143 17.579 53.9143H13.5489C8.94123 53.9143 5.19489 50.1655 5.19489 45.5603V13.3219C5.19489 8.71427 8.94123 4.96793 13.5489 4.96793H61.9053C64.1307 4.96793 66.2242 5.83917 67.8073 7.41985C69.3905 9.00302 70.2593 11.099 70.2593 13.3219V45.5603C70.2593 50.168 66.5104 53.9143 61.9053 53.9143H39.4173C38.429 53.9143 37.4831 54.3051 36.7836 54.9996Z" fill="#3772FF"/>
</svg>
