<svg width="59" height="74" viewBox="0 0 59 74" fill="none" xmlns="http://www.w3.org/2000/svg">
<path fill-rule="evenodd" clip-rule="evenodd" d="M4.00005 16.6645C9.31449 19.8362 19.1803 21 29.0001 21C38.9628 21 49.4484 19.8021 55 16.5247V28C54.3 29.7825 44.1088 33 29.0001 33C13.8913 33 4.6838 29.9263 4.00005 28.25V16.6645ZM5.38519e-05 28.2484L5.38528e-05 28.25L5.37932e-05 37L0 45.75C0 45.9393 0.0102678 46.1248 0.0304645 46.3066C0.00402533 46.5301 5.37634e-05 46.7633 5.37634e-05 47V55.5V64.5C5.37634e-05 72.3938 17.8576 74 29.0001 74C40.1426 74 59.0001 72.3938 59.0001 64.5V47C59.0001 46.8228 58.9812 46.6475 58.9447 46.4769C58.9813 46.241 59.0001 45.9987 59.0001 45.75V28.25V10.75C59.0001 3.02 43.4501 0 29.0001 0C14.5591 0 0.018402 3.01622 0.000208273 10.7355L4.42564e-05 10.75L5.38519e-05 28.2484ZM54.0043 51.5226C47.6357 54.3777 36.5478 55 29.0001 55C21.1307 55 9.91209 54.3235 4.00005 51.1454V64.5C4.6838 66.1762 13.8913 70 29.0001 70C44.1088 70 53.3163 66.1763 54.0163 64.3938L54.0043 51.5226ZM55 37V33.4376C48.852 36.5632 36.9583 37 29.0001 37C21.1307 37 9.91207 36.5729 4.00005 33.5413V45.75C4.6838 47.4263 13.8913 51 29.0001 51C44.1088 51 54.3 47.2825 55 45.5V37ZM4.00005 10.75C4.00005 8.88125 12.5063 4 29.0001 4C45.5001 4 54.0001 8.875 54.0001 10.75C54.0001 12.625 45.4938 17 29.0001 17C12.5063 17 4.00005 12.6187 4.00005 10.75Z" fill="white"/>
</svg>
