<svg width="14" height="11" viewBox="0 0 14 11" fill="none" xmlns="http://www.w3.org/2000/svg">
<g clip-path="url(#clip0_901_258)">
<path d="M11.8516 0.979563C10.9593 0.564283 10.0024 0.258323 9.00194 0.0830868C8.98372 0.0797048 8.96552 0.0881566 8.95614 0.105061C8.83307 0.327063 8.69676 0.616683 8.6013 0.844323C7.52524 0.680923 6.45469 0.680923 5.40069 0.844323C5.30521 0.611623 5.16395 0.327063 5.04034 0.105061C5.03095 0.0887206 5.01275 0.0802688 4.99453 0.0830868C3.99461 0.257763 3.03774 0.563723 2.14488 0.979563C2.13715 0.982943 2.13052 0.988583 2.12613 0.995903C0.311145 3.74618 -0.186054 6.42886 0.0578551 9.07828C0.0589587 9.09124 0.0661324 9.10364 0.0760655 9.11152C1.27354 10.0035 2.4335 10.545 3.57191 10.9039C3.59013 10.9095 3.60944 10.9028 3.62103 10.8876C3.89032 10.5146 4.13037 10.1213 4.33619 9.70766C4.34834 9.68344 4.33675 9.6547 4.31192 9.64512C3.93116 9.49862 3.5686 9.32 3.21984 9.11716C3.19226 9.10082 3.19005 9.0608 3.21543 9.04164C3.28882 8.98586 3.36223 8.92782 3.43231 8.86922C3.44499 8.85852 3.46265 8.85626 3.47756 8.86302C5.76875 9.92404 8.24923 9.92404 10.5134 8.86302C10.5283 8.8557 10.546 8.85796 10.5592 8.86866C10.6293 8.92726 10.7027 8.98586 10.7766 9.04164C10.802 9.0608 10.8003 9.10082 10.7728 9.11716C10.424 9.32394 10.0614 9.49862 9.68013 9.64456C9.65531 9.65414 9.64427 9.68344 9.65641 9.70766C9.86665 10.1207 10.1067 10.514 10.371 10.887C10.3821 10.9028 10.4019 10.9095 10.4201 10.9039C11.5641 10.545 12.724 10.0035 13.9215 9.11152C13.932 9.10364 13.9386 9.0918 13.9397 9.07884C14.2316 6.01582 13.4508 3.35514 11.8698 0.996463C11.8659 0.988583 11.8593 0.982943 11.8516 0.979563ZM4.67835 7.46506C3.98854 7.46506 3.42016 6.82272 3.42016 6.03386C3.42016 5.245 3.97752 4.60266 4.67835 4.60266C5.38468 4.60266 5.94756 5.25064 5.93651 6.03386C5.93651 6.82272 5.37916 7.46506 4.67835 7.46506ZM9.33027 7.46506C8.64048 7.46506 8.0721 6.82272 8.0721 6.03386C8.0721 5.245 8.62944 4.60266 9.33027 4.60266C10.0366 4.60266 10.5995 5.25064 10.5885 6.03386C10.5885 6.82272 10.0366 7.46506 9.33027 7.46506Z" fill="white"/>
</g>
<defs>
<clipPath id="clip0_901_258">
<rect width="14" height="11" fill="white"/>
</clipPath>
</defs>
</svg>
