<svg width="42" height="42" viewBox="0 0 42 42" fill="none" xmlns="http://www.w3.org/2000/svg">
<path d="M14.0123 4.17375C11.5122 4.86277 9.02909 5.61199 6.56514 6.42075C6.34015 6.49363 6.14015 6.62824 5.98793 6.80924C5.8357 6.99023 5.73737 7.21035 5.70414 7.4445C4.24989 18.3566 7.60989 26.3183 11.6183 31.563C13.3154 33.8058 15.339 35.7816 17.6216 37.4246C18.5299 38.0651 19.3331 38.5271 19.9658 38.8237C20.2808 38.9734 20.538 39.0731 20.7349 39.1335C20.821 39.1637 20.9098 39.1857 21 39.1991C21.0892 39.1846 21.177 39.1627 21.2625 39.1335C21.462 39.0731 21.7193 38.9734 22.0343 38.8237C22.6643 38.5271 23.4701 38.0625 24.3784 37.4246C26.661 35.7816 28.6846 33.8058 30.3818 31.563C34.3901 26.3209 37.7501 18.3566 36.2959 7.4445C36.263 7.21024 36.1647 6.98998 36.0125 6.80893C35.8602 6.62788 35.66 6.49336 35.4349 6.42075C33.726 5.86163 30.8411 4.95075 27.9878 4.17637C25.074 3.38625 22.3939 2.80088 21 2.80088C19.6088 2.80088 16.926 3.38625 14.0123 4.17637V4.17375ZM13.314 1.47C16.1621 0.695625 19.1888 0 21 0C22.8113 0 25.8379 0.695625 28.686 1.47C31.5998 2.2575 34.5371 3.18937 36.2644 3.75375C36.9866 3.99223 37.6268 4.4296 38.1116 5.01559C38.5963 5.60158 38.906 6.31244 39.0049 7.0665C40.5694 18.8186 36.939 27.5284 32.5343 33.2902C30.6664 35.7551 28.4392 37.9256 25.9271 39.7294C25.0585 40.3535 24.1382 40.9024 23.1761 41.37C22.4411 41.7165 21.651 42 21 42C20.349 42 19.5615 41.7165 18.8239 41.37C17.8619 40.9024 16.9415 40.3536 16.0729 39.7294C13.5608 37.9256 11.3337 35.755 9.46576 33.2902C5.06101 27.5284 1.43064 18.8186 2.99514 7.0665C3.09407 6.31244 3.4037 5.60158 3.88847 5.01559C4.37324 4.4296 5.01348 3.99223 5.73564 3.75375C8.24302 2.93162 10.7699 2.17015 13.314 1.47Z" fill="#3772FF"/>
<path d="M28.4934 13.5106C28.6156 13.6325 28.7126 13.7774 28.7788 13.9368C28.8449 14.0963 28.879 14.2672 28.879 14.4398C28.879 14.6125 28.8449 14.7834 28.7788 14.9429C28.7126 15.1023 28.6156 15.2472 28.4934 15.3691L20.6184 23.2441C20.4965 23.3663 20.3517 23.4633 20.1922 23.5295C20.0327 23.5956 19.8618 23.6297 19.6892 23.6297C19.5165 23.6297 19.3456 23.5956 19.1861 23.5295C19.0267 23.4633 18.8818 23.3663 18.7599 23.2441L14.8224 19.3066C14.7004 19.1846 14.6036 19.0397 14.5375 18.8803C14.4715 18.7208 14.4375 18.5499 14.4375 18.3773C14.4375 18.2048 14.4715 18.0339 14.5375 17.8744C14.6036 17.715 14.7004 17.5701 14.8224 17.4481C14.9444 17.3261 15.0893 17.2293 15.2488 17.1632C15.4082 17.0972 15.5791 17.0632 15.7517 17.0632C15.9242 17.0632 16.0951 17.0972 16.2546 17.1632C16.414 17.2293 16.5589 17.3261 16.6809 17.4481L19.6892 20.459L26.6349 13.5106C26.7568 13.3884 26.9017 13.2914 27.0611 13.2252C27.2206 13.1591 27.3915 13.125 27.5642 13.125C27.7368 13.125 27.9077 13.1591 28.0672 13.2252C28.2267 13.2914 28.3715 13.3884 28.4934 13.5106Z" fill="#3772FF"/>
</svg>
