<svg width="42" height="43" viewBox="0 0 42 43" fill="none" xmlns="http://www.w3.org/2000/svg">
<path d="M20.9392 10.5908V13.8331" stroke="#3772FF" stroke-width="2.43686" stroke-linecap="round" stroke-linejoin="round"/>
<path d="M20.9392 30.0422V33.2845" stroke="#3772FF" stroke-width="2.43686" stroke-linecap="round" stroke-linejoin="round"/>
<path d="M9.28167 6.3627C12.5304 3.92743 16.5661 2.4848 20.9387 2.4848C31.6828 2.4848 40.3926 11.1946 40.3926 21.9387C40.3926 32.6827 31.6828 41.3925 20.9387 41.3925C10.1947 41.3925 1.48486 32.6827 1.48486 21.9387C1.48486 17.7234 2.82552 13.8213 5.10369 10.6354" stroke="#3772FF" stroke-width="2.43686" stroke-linecap="round" stroke-linejoin="round"/>
<path d="M9.6936 1.49432L8.83474 6.77921L14.1196 7.63807" stroke="#3772FF" stroke-width="2.43686" stroke-linecap="round" stroke-linejoin="round"/>
<path d="M16.0762 30.0436H23.3714C24.4463 30.0436 25.4772 29.6166 26.2373 28.8565C26.9973 28.0965 27.4243 27.0656 27.4243 25.9907C27.4243 24.9158 26.9973 23.8849 26.2373 23.1249C25.4772 22.3648 24.4463 21.9378 23.3714 21.9378H18.508C17.4331 21.9378 16.4022 21.5108 15.6421 20.7507C14.8821 19.9907 14.4551 18.9598 14.4551 17.8849C14.4551 16.81 14.8821 15.7792 15.6421 15.0191C16.4022 14.259 17.4331 13.832 18.508 13.832H25.8032" stroke="#3772FF" stroke-width="2.43686" stroke-linecap="round" stroke-linejoin="round"/>
</svg>
