<svg width="19" height="16" viewBox="0 0 19 16" fill="none" xmlns="http://www.w3.org/2000/svg">
<g clip-path="url(#clip0_169_743)">
<path d="M17.4055 0H2.65625C2.31104 0 2.03125 0.279785 2.03125 0.625C2.03125 2.36548 2.77734 4.0271 4.07825 5.18347L6.81543 7.61634C7.29004 8.03821 7.56226 8.64441 7.56226 9.27954V15.3743C7.56226 15.8723 8.1189 16.1709 8.53382 15.8942L12.2212 13.436C12.395 13.3201 12.4995 13.125 12.4995 12.916V9.27954C12.4995 8.64441 12.7717 8.03821 13.2463 7.61634L15.9834 5.18347C17.2843 4.0271 18.0304 2.36548 18.0304 0.625C18.0304 0.279785 17.7506 0 17.4055 0V0ZM15.153 4.24915L12.4159 6.68213C11.6747 7.34107 11.2495 8.28772 11.2495 9.27942V12.5815L8.81214 14.2064V9.27954C8.81214 8.28772 8.38697 7.34107 7.64575 6.68213L4.90869 4.24927C4.0315 3.46936 3.47156 2.40076 3.32166 1.24988H16.74C16.5901 2.40076 16.0303 3.46936 15.153 4.24915V4.24915Z" fill="#232730" stroke="#232730"/>
</g>
<defs>
<clipPath id="clip0_169_743">
<rect width="19" height="16" fill="white"/>
</clipPath>
</defs>
</svg>
