<svg width="24" height="22" viewBox="0 0 24 22" fill="none" xmlns="http://www.w3.org/2000/svg">
<path d="M6 21.5C5.88975 21.5 5.77875 21.4753 5.6745 21.4257C5.41575 21.3005 5.25 21.0387 5.25 20.75V17H3C1.7595 17 0.75 15.9905 0.75 14.75V2.75C0.75 1.5095 1.7595 0.5 3 0.5H21C22.2405 0.5 23.25 1.5095 23.25 2.75V14.75C23.25 15.9905 22.2405 17 21 17H11.8883L6.46875 21.3358C6.333 21.4445 6.16725 21.5 6 21.5ZM3 2C2.586 2 2.25 2.33675 2.25 2.75V14.75C2.25 15.1632 2.586 15.5 3 15.5H6C6.41475 15.5 6.75 15.8352 6.75 16.25V19.19L11.1562 15.6642C11.2898 15.5577 11.454 15.5 11.625 15.5H21C21.414 15.5 21.75 15.1632 21.75 14.75V2.75C21.75 2.33675 21.414 2 21 2H3Z" fill="white" stroke="white" stroke-width="0.5"/>
<path d="M18 8H6C5.58525 8 5.25 7.664 5.25 7.25C5.25 6.836 5.58525 6.5 6 6.5H18C18.4148 6.5 18.75 6.836 18.75 7.25C18.75 7.664 18.4148 8 18 8Z" fill="white" stroke="white" stroke-width="0.5"/>
<path d="M12 11H6C5.58525 11 5.25 10.664 5.25 10.25C5.25 9.836 5.58525 9.5 6 9.5H12C12.4148 9.5 12.75 9.836 12.75 10.25C12.75 10.664 12.4148 11 12 11Z" fill="white" stroke="white" stroke-width="0.5"/>
</svg>
