<svg width="79" height="74" viewBox="0 0 79 74" fill="none" xmlns="http://www.w3.org/2000/svg">
<path d="M69.3326 2.73704C69.0677 2.07614 68.6109 1.50978 68.021 1.11103C67.4312 0.712286 66.7353 0.499455 66.0233 0.500001H13.3228C12.6108 0.499455 11.915 0.712286 11.3251 1.11103C10.7353 1.50978 10.2784 2.07614 10.0136 2.73704L0.742171 25.9155C0.575232 26.3374 0.489426 26.787 0.489258 27.2406V69.9378C0.489258 70.8826 0.864556 71.7886 1.53259 72.4567C2.20063 73.1247 3.10668 73.5 4.05142 73.5H75.2947C76.2395 73.5 77.1455 73.1247 77.8136 72.4567C78.4816 71.7886 78.8569 70.8826 78.8569 69.9378V27.2406C78.8567 26.787 78.7709 26.3374 78.604 25.9155L69.3326 2.73704ZM13.3228 4H39.2471H66.0233L74.7471 26.5H40.2471H4.74707L13.3228 4ZM4.74707 69.5V30.8028H74.7471V50V69.5H41.2471H4.74707Z" fill="#3772FF"/>
<rect x="30.9854" y="28.7646" width="16" height="16" stroke="#3772FF" stroke-width="4"/>
</svg>
