<svg width="22" height="22" viewBox="0 0 22 22" fill="none" xmlns="http://www.w3.org/2000/svg">
<g clip-path="url(#clip0_502_5045)">
<path d="M16.489 15.836C17.0289 16.37 17.0338 17.2406 16.4999 17.7805C14.6743 19.6267 12.2393 20.6434 9.64348 20.6434C7.06763 20.6434 4.64591 19.6403 2.82451 17.8189C1.00311 15.9976 0 13.5759 0 11C0 8.4241 1.00311 6.00243 2.82451 4.18103C4.64591 2.35963 7.06758 1.35652 9.64348 1.35652C12.2393 1.35652 14.6743 2.37325 16.4999 4.2194C17.0338 4.75934 17.0289 5.62998 16.489 6.16391C15.9491 6.69784 15.0784 6.69298 14.5445 6.15304C13.2394 4.83334 11.4989 4.10652 9.64348 4.10652C5.84242 4.10652 2.75 7.19894 2.75 11C2.75 14.8011 5.84242 17.8934 9.64348 17.8934C11.4989 17.8934 13.2394 17.1666 14.5445 15.8469C15.0785 15.307 15.9491 15.3022 16.489 15.836ZM21.5973 10.0277L18.8977 7.32819C18.3607 6.79121 17.4901 6.79121 16.9531 7.32819C16.4162 7.86517 16.4162 8.73576 16.9531 9.27274L17.3054 9.62499H10.1197C9.36031 9.62499 8.7447 10.2406 8.7447 11C8.7447 11.7594 9.36031 12.375 10.1197 12.375H17.3054L16.9532 12.7273C16.4162 13.2642 16.4162 14.1348 16.9532 14.6718C17.2217 14.9403 17.5736 15.0745 17.9254 15.0745C18.2773 15.0745 18.6292 14.9403 18.8977 14.6718L21.5973 11.9722C22.1342 11.4353 22.1342 10.5647 21.5973 10.0277Z" fill="white" stroke="#1A1F2D"/>
</g>
<defs>
<clipPath id="clip0_502_5045">
<rect width="22" height="22" fill="white"/>
</clipPath>
</defs>
</svg>
