<svg width="15" height="23" viewBox="0 0 15 23" fill="none" xmlns="http://www.w3.org/2000/svg">
<path d="M2.79076 22.1382C3.1114 22.325 3.50534 22.3298 3.82865 22.1471L7.50001 20.0862L11.1714 22.1471C11.3303 22.2367 11.5062 22.2809 11.6821 22.2809C11.8642 22.2809 12.0462 22.2333 12.2093 22.1382C12.5292 21.9507 12.7255 21.6077 12.7255 21.2375V12.864C13.9474 11.5727 14.7028 9.8354 14.7028 7.92152C14.7028 3.94992 11.4716 0.71875 7.50001 0.71875C3.52841 0.71875 0.297241 3.94992 0.297241 7.92152C0.297241 9.83539 1.05258 11.5727 2.27455 12.864V21.2375C2.27455 21.6077 2.47082 21.9507 2.79076 22.1382ZM10.6388 19.4552L8.01082 17.9798C7.6929 17.8019 7.30712 17.8019 6.9892 17.9798L4.36118 19.4552V14.3943C5.31151 14.8571 6.37389 15.1243 7.50001 15.1243C8.62614 15.1243 9.68851 14.8571 10.6388 14.3943V19.4552H10.6388ZM7.50001 2.80538C10.3209 2.80538 12.6161 5.10057 12.6161 7.92152C12.6161 10.7424 10.3209 13.0376 7.50001 13.0376C4.6791 13.0376 2.38392 10.7424 2.38392 7.92152C2.38392 5.10057 4.6791 2.80538 7.50001 2.80538Z" fill="white"/>
</svg>
