<svg width="23" height="21" viewBox="0 0 23 21" fill="none" xmlns="http://www.w3.org/2000/svg">
<path d="M7.91283 15.4336C6.53139 15.4336 5.41162 16.5534 5.41162 17.9348C5.41162 19.3161 6.53139 20.4358 7.91283 20.4358C9.29409 20.4358 10.4139 19.3161 10.4139 17.9348C10.4124 16.5541 9.29355 15.435 7.91283 15.4336ZM7.91283 19.5163C7.03928 19.5163 6.33114 18.8082 6.33114 17.9348C6.33114 17.0613 7.03928 16.3531 7.91283 16.3531C8.78619 16.3531 9.49433 17.0613 9.49433 17.9348C9.49433 18.8082 8.78619 19.5163 7.91283 19.5163Z" fill="white" stroke="white"/>
<path d="M21.5448 4.93878H5.31059L4.97959 3.0859C4.77557 1.9453 3.88155 1.05308 2.74059 0.851391L1.54054 0.640009C1.29037 0.595469 1.05169 0.762312 1.00715 1.01231C0.96279 1.26248 1.12945 1.50116 1.37963 1.5457L2.58417 1.75708C3.34421 1.89178 3.9392 2.48678 4.0739 3.24682L5.70138 12.4282C5.89355 13.5268 6.84809 14.3281 7.96337 14.3271H17.6184C18.6327 14.3301 19.5285 13.6662 19.8207 12.6949L21.9816 5.5318C22.0216 5.39207 21.9963 5.24157 21.9126 5.12268C21.8252 5.00756 21.6892 4.93967 21.5448 4.93878ZM18.9425 12.4235C18.769 13.0069 18.2315 13.4059 17.623 13.4029H7.96804C7.29833 13.4047 6.72507 12.9228 6.61175 12.2626L5.47617 5.85363H20.9286L18.9425 12.4235Z" fill="white" stroke="white"/>
<path d="M17.5676 15.4336C16.1862 15.4336 15.0664 16.5534 15.0664 17.9348C15.0664 19.3161 16.1862 20.4358 17.5676 20.4358C18.9489 20.4358 20.0686 19.3161 20.0686 17.9348C20.0672 16.5541 18.9483 15.435 17.5676 15.4336ZM17.5676 19.5163C16.6941 19.5163 15.9859 18.8082 15.9859 17.9348C15.9859 17.0613 16.6941 16.3531 17.5676 16.3531C18.441 16.3531 19.1491 17.0613 19.1491 17.9348C19.1491 18.8082 18.441 19.5163 17.5676 19.5163Z" fill="white" stroke="white"/>
</svg>
