<svg width="17" height="23" viewBox="0 0 17 23" fill="none" xmlns="http://www.w3.org/2000/svg">
<path d="M14.6582 9.03906V6.86523C14.6582 3.63111 12.0271 1 8.79297 1C5.55885 1 2.92773 3.63111 2.92773 6.86523V9.03906H1V14.207C1 18.5041 4.49588 22 8.79297 22C13.0901 22 16.5859 18.5041 16.5859 14.207V9.03906H14.6582ZM4.1582 6.86523C4.1582 4.30959 6.23733 2.23047 8.79297 2.23047C11.3486 2.23047 13.4277 4.30959 13.4277 6.86523V9.03906H4.1582V6.86523ZM15.3555 14.207C15.3555 17.8256 12.4116 20.7695 8.79297 20.7695C5.17437 20.7695 2.23047 17.8256 2.23047 14.207V10.2695H15.3555V14.207Z" fill="white" fill-opacity="0.6" stroke="#A5A7AD" stroke-width="0.221053"/>
</svg>
