<svg width="20" height="20" viewBox="0 0 20 20" fill="none" xmlns="http://www.w3.org/2000/svg">
<path d="M1.78518 3.85039L4.18144 1.45669C4.47394 1.16423 4.86544 1 5.27944 1C5.69344 1 6.08494 1.16198 6.37745 1.45669L8.95821 4.03262C9.25071 4.32508 9.41496 4.71879 9.41496 5.13273C9.41496 5.54893 9.25296 5.93813 8.95821 6.23285L6.9422 8.25084C7.40146 9.32078 8.06134 10.2929 8.88621 11.1147C9.71196 11.9449 10.6772 12.5996 11.7482 13.063L13.7642 11.045C14.0567 10.7525 14.4482 10.5883 14.8622 10.5883C15.0664 10.5875 15.2687 10.6276 15.4573 10.706C15.6458 10.7844 15.8168 10.8997 15.9602 11.045L18.5432 13.6209C18.8357 13.9134 19 14.3071 19 14.721C19 15.1372 18.838 15.5264 18.5432 15.8211L16.1492 18.2148C15.6497 18.7143 14.9612 19 14.2547 19C14.1085 19 13.9667 18.9888 13.8227 18.964C10.8437 18.4736 7.8872 16.8875 5.49994 14.5028C3.11493 12.1136 1.53092 9.15748 1.03592 6.1766C0.894171 5.33071 1.17767 4.46007 1.78518 3.85039V3.85039ZM2.63118 5.90889C3.06993 8.56131 4.49644 11.207 6.6452 13.3555C8.79396 15.5039 11.4377 16.9303 14.0905 17.369C14.4235 17.4252 14.7655 17.3127 15.0085 17.072L17.3597 14.721L14.8667 12.2261L12.1712 14.9258L12.151 14.946L11.665 14.766C10.1914 14.2243 8.85321 13.3687 7.74322 12.2584C6.63323 11.1482 5.77796 9.80993 5.23669 8.33633L5.05669 7.85039L7.7747 5.13498L5.28169 2.64004L2.93043 4.991C2.68743 5.23397 2.57493 5.57593 2.63118 5.90889Z" fill="white" fill-opacity="0.6" stroke="#1F2332" stroke-width="0.3"/>
</svg>
