<svg width="19" height="19" viewBox="0 0 19 19" fill="none" xmlns="http://www.w3.org/2000/svg">
<path d="M15.9092 0.7221H9.91996C9.60774 0.721425 9.29848 0.7827 9.0101 0.902376C8.72173 1.02205 8.45996 1.19775 8.23996 1.4193L1.41916 8.2401C1.19668 8.45967 1.02003 8.72125 0.899455 9.00964C0.778884 9.29804 0.716797 9.60751 0.716797 9.9201C0.716797 10.2327 0.778884 10.5422 0.899455 10.8306C1.02003 11.119 1.19668 11.3805 1.41916 11.6001L7.39996 17.5809C7.61895 17.8044 7.88034 17.982 8.16881 18.1032C8.45729 18.2244 8.76705 18.2868 9.07996 18.2868C9.39287 18.2868 9.70263 18.2244 9.99111 18.1032C10.2796 17.982 10.541 17.8044 10.76 17.5809L17.5808 10.7601C17.8099 10.5436 17.9934 10.2834 18.1203 9.99489C18.2473 9.70635 18.3152 9.3953 18.32 9.0801V3.0909C18.3189 2.77658 18.2555 2.4656 18.1334 2.17594C18.0114 1.88629 17.8331 1.62372 17.6089 1.40342C17.3847 1.18313 17.119 1.00948 16.8272 0.892532C16.5355 0.775584 16.2234 0.717656 15.9092 0.7221ZM17.48 9.0801C17.4804 9.4859 17.3204 9.87542 17.0348 10.1637L10.2224 16.9761C9.93068 17.252 9.54444 17.4057 9.14296 17.4057C8.74148 17.4057 8.35524 17.252 8.06356 16.9761L2.00716 10.9785C1.72459 10.6985 1.5645 10.3179 1.56196 9.9201C1.56151 9.51429 1.72155 9.12478 2.00716 8.8365L8.81956 2.0241C8.96292 1.87762 9.13412 1.76129 9.32309 1.68195C9.51207 1.60261 9.715 1.56186 9.91996 1.5621H15.926C16.1285 1.55988 16.3295 1.59773 16.5174 1.67346C16.7053 1.7492 16.8764 1.86132 17.0208 2.0034C17.1652 2.14547 17.2801 2.31469 17.3589 2.50132C17.4377 2.68795 17.4789 2.88832 17.48 3.0909V9.0801Z" fill="white" stroke="white" stroke-width="0.552632"/>
<path d="M12.9861 3.64522C12.5176 3.64522 12.0596 3.78415 11.6701 4.04443C11.2805 4.30472 10.9769 4.67467 10.7976 5.10752C10.6183 5.54036 10.5714 6.01664 10.6628 6.47615C10.7542 6.93565 10.9798 7.35773 11.3111 7.68901C11.6424 8.02029 12.0645 8.2459 12.524 8.3373C12.9835 8.4287 13.4598 8.38179 13.8926 8.2025C14.3255 8.02321 14.6954 7.7196 14.9557 7.33005C15.216 6.9405 15.3549 6.48252 15.3549 6.01402C15.356 5.70263 15.2955 5.3941 15.1769 5.1062C15.0582 4.81831 14.8838 4.55673 14.6636 4.33655C14.4434 4.11636 14.1818 3.94192 13.8939 3.82327C13.606 3.70462 13.2975 3.64411 12.9861 3.64522ZM12.9861 7.53442C12.6834 7.53441 12.3875 7.44453 12.1359 7.27617C11.8843 7.10781 11.6884 6.86855 11.5729 6.58871C11.4574 6.30887 11.4277 6.00104 11.4873 5.70426C11.547 5.40747 11.6934 5.13509 11.9081 4.92162C12.1227 4.70815 12.3959 4.56321 12.693 4.50518C12.9901 4.44714 13.2978 4.47862 13.577 4.59562C13.8562 4.71262 14.0944 4.90987 14.2614 5.16238C14.4283 5.4149 14.5166 5.7113 14.5149 6.01402C14.5149 6.21439 14.4753 6.41278 14.3984 6.5978C14.3214 6.78281 14.2087 6.95079 14.0666 7.09208C13.9246 7.23337 13.756 7.34519 13.5705 7.4211C13.3851 7.49701 13.1865 7.53552 12.9861 7.53442Z" fill="white" stroke="white" stroke-width="0.552632"/>
</svg>
