<svg width="19" height="22" viewBox="0 0 19 22" fill="none" xmlns="http://www.w3.org/2000/svg">
<path d="M9.21686 10.6341C10.5404 10.6341 11.6863 10.1594 12.6229 9.22279C13.5592 8.28636 14.0341 7.14058 14.0341 5.81689C14.0341 4.49365 13.5594 3.34771 12.6228 2.41098C11.6862 1.4747 10.5403 1 9.21686 1C7.89316 1 6.74738 1.4747 5.81094 2.41113C4.87451 3.34756 4.39966 4.49349 4.39966 5.81689C4.39966 7.14058 4.87451 8.28652 5.81094 9.22295C6.74768 10.1592 7.89362 10.6341 9.21686 10.6341ZM6.6398 3.23983C7.35834 2.5213 8.20123 2.17203 9.21686 2.17203C10.2323 2.17203 11.0754 2.5213 11.7941 3.23983C12.5126 3.95852 12.862 4.80157 12.862 5.81689C12.862 6.83251 12.5126 7.6754 11.7941 8.39409C11.0754 9.11278 10.2323 9.46205 9.21686 9.46205C8.20154 9.46205 7.35864 9.11263 6.6398 8.39409C5.92111 7.67555 5.57169 6.83251 5.57169 5.81689C5.57169 4.80157 5.92111 3.95852 6.6398 3.23983Z" fill="white" stroke="white" stroke-width="0.7"/>
<path d="M17.6457 16.3784C17.6187 15.9887 17.564 15.5636 17.4836 15.1146C17.4024 14.6624 17.2979 14.2348 17.1728 13.844C17.0434 13.4401 16.8678 13.0413 16.6503 12.6591C16.425 12.2623 16.1601 11.9169 15.8628 11.6326C15.552 11.3352 15.1714 11.0961 14.7314 10.9217C14.2928 10.7482 13.8069 10.6603 13.287 10.6603C13.0828 10.6603 12.8854 10.7441 12.5041 10.9923C12.2694 11.1454 11.9949 11.3224 11.6885 11.5182C11.4265 11.6851 11.0716 11.8415 10.6332 11.9831C10.2055 12.1215 9.77121 12.1917 9.34244 12.1917C8.91397 12.1917 8.47971 12.1215 8.0517 11.9831C7.61377 11.8416 7.2587 11.6852 6.99716 11.5183C6.69366 11.3244 6.41901 11.1474 6.18082 10.9922C5.7998 10.7439 5.60236 10.6602 5.39819 10.6602C4.87817 10.6602 4.39233 10.7482 3.95395 10.9218C3.51419 11.0959 3.13348 11.3351 2.82236 11.6327C2.52512 11.9172 2.26022 12.2625 2.035 12.6591C1.81787 13.0413 1.64209 13.44 1.5127 13.8442C1.38773 14.235 1.2832 14.6624 1.20203 15.1146C1.12146 15.5629 1.06699 15.9882 1.03998 16.3788C1.01343 16.7608 1 17.1583 1 17.5599C1 18.6039 1.33188 19.449 1.98633 20.0724C2.63269 20.6874 3.48779 20.9993 4.52798 20.9993H14.1581C15.198 20.9993 16.0531 20.6874 16.6996 20.0724C17.3542 19.4495 17.6861 18.604 17.6861 17.5597C17.6859 17.1567 17.6724 16.7592 17.6457 16.3784ZM15.8915 19.2232C15.4644 19.6297 14.8974 19.8273 14.158 19.8273H4.52798C3.78839 19.8273 3.22137 19.6297 2.79443 19.2234C2.37558 18.8247 2.17203 18.2804 2.17203 17.5599C2.17203 17.1851 2.18439 16.8151 2.20911 16.4599C2.23322 16.1113 2.2825 15.7285 2.35559 15.3217C2.42776 14.9199 2.51962 14.5429 2.62888 14.2016C2.7337 13.8743 2.87668 13.5502 3.05399 13.238C3.22321 12.9404 3.41791 12.6851 3.63275 12.4795C3.83371 12.287 4.08701 12.1296 4.38547 12.0115C4.6615 11.9022 4.97171 11.8424 5.30847 11.8334C5.34952 11.8552 5.42261 11.8969 5.54102 11.9741C5.78195 12.1311 6.05966 12.3102 6.36667 12.5063C6.71274 12.727 7.1586 12.9262 7.69128 13.0982C8.23587 13.2743 8.79129 13.3637 9.34259 13.3637C9.89389 13.3637 10.4495 13.2743 10.9937 13.0984C11.5269 12.9261 11.9726 12.727 12.3191 12.506C12.6333 12.3052 12.9032 12.1313 13.1442 11.9741C13.2626 11.897 13.3357 11.8552 13.3767 11.8334C13.7136 11.8424 14.0238 11.9022 14.3 12.0115C14.5983 12.1296 14.8516 12.2872 15.0526 12.4795C15.2674 12.685 15.4621 12.9403 15.6313 13.2381C15.8088 13.5502 15.9519 13.8744 16.0566 14.2014C16.166 14.5432 16.258 14.9201 16.33 15.3216C16.403 15.7291 16.4524 16.1121 16.4765 16.46V16.4603C16.5014 16.8142 16.5139 17.184 16.5141 17.5599C16.5139 18.2805 16.3104 18.8247 15.8915 19.2232Z" fill="white" stroke="white" stroke-width="0.7"/>
</svg>
