<svg width="21" height="23" viewBox="0 0 21 23" fill="none" xmlns="http://www.w3.org/2000/svg">
<path d="M16.2501 14.3749C15.6472 14.3763 15.0532 14.5203 14.5166 14.7951C13.9799 15.0699 13.5159 15.4678 13.1624 15.9562L8.35634 12.7525C8.65921 11.9449 8.65921 11.0549 8.35634 10.2474L13.1624 7.04366C13.7018 7.775 14.4844 8.29 15.3695 8.49614C16.2545 8.70228 17.1841 8.58605 17.9912 8.16832C18.7982 7.7506 19.4299 7.05877 19.7726 6.21712C20.1154 5.37548 20.1468 4.43919 19.8612 3.57648C19.5756 2.71377 18.9917 1.98118 18.2144 1.51033C17.4371 1.03949 16.5174 0.861256 15.6205 1.00765C14.7236 1.15405 13.9083 1.61547 13.3211 2.30903C12.7339 3.0026 12.4133 3.88283 12.4168 4.79158C12.423 4.93122 12.4371 5.0704 12.459 5.20846L7.29259 8.65271C6.74201 8.15638 6.05934 7.83033 5.32725 7.71404C4.59516 7.59776 3.84506 7.69623 3.16779 7.99753C2.49052 8.29883 1.91513 8.79004 1.51132 9.41166C1.1075 10.0333 0.892578 10.7586 0.892578 11.4999C0.892578 12.2412 1.1075 12.9666 1.51132 13.5882C1.91513 14.2098 2.49052 14.701 3.16779 15.0023C3.84506 15.3036 4.59516 15.4021 5.32725 15.2858C6.05934 15.1695 6.74201 14.8435 7.29259 14.3471L12.459 17.7914C12.4371 17.9294 12.423 18.0686 12.4168 18.2083C12.4168 18.9664 12.6416 19.7075 13.0628 20.3379C13.484 20.9683 14.0827 21.4597 14.7832 21.7498C15.4836 22.0399 16.2544 22.1158 16.998 21.9679C17.7416 21.82 18.4246 21.4549 18.9607 20.9188C19.4968 20.3827 19.8619 19.6997 20.0098 18.9561C20.1577 18.2125 20.0818 17.4417 19.7917 16.7413C19.5015 16.0408 19.0102 15.4422 18.3798 15.021C17.7494 14.5997 17.0083 14.3749 16.2501 14.3749ZM16.2501 2.87491C16.6292 2.87491 16.9998 2.98732 17.315 3.19793C17.6302 3.40854 17.8758 3.70788 18.0209 4.0581C18.166 4.40833 18.2039 4.79371 18.13 5.1655C18.056 5.5373 17.8735 5.87882 17.6054 6.14687C17.3374 6.41492 16.9959 6.59747 16.6241 6.67142C16.2523 6.74538 15.8669 6.70742 15.5167 6.56235C15.1664 6.41728 14.8671 6.17162 14.6565 5.85642C14.4459 5.54123 14.3335 5.17066 14.3335 4.79158C14.3335 4.28325 14.5354 3.79574 14.8948 3.43629C15.2543 3.07685 15.7418 2.87491 16.2501 2.87491ZM4.75013 13.4166C4.37105 13.4166 4.00048 13.3042 3.68529 13.0936C3.3701 12.883 3.12443 12.5836 2.97936 12.2334C2.8343 11.8832 2.79634 11.4978 2.87029 11.126C2.94425 10.7542 3.12679 10.4127 3.39485 10.1446C3.6629 9.87658 4.00441 9.69403 4.37621 9.62008C4.74801 9.54612 5.13338 9.58408 5.48361 9.72915C5.83384 9.87421 6.13318 10.1199 6.34378 10.4351C6.55439 10.7503 6.6668 11.1208 6.6668 11.4999C6.6668 12.0082 6.46487 12.4958 6.10542 12.8552C5.74598 13.2146 5.25846 13.4166 4.75013 13.4166ZM16.2501 20.1249C15.8711 20.1249 15.5005 20.0125 15.1853 19.8019C14.8701 19.5913 14.6244 19.292 14.4794 18.9417C14.3343 18.5915 14.2963 18.2061 14.3703 17.8343C14.4442 17.4625 14.6268 17.121 14.8948 16.853C15.1629 16.5849 15.5044 16.4024 15.8762 16.3284C16.248 16.2545 16.6334 16.2924 16.9836 16.4375C17.3338 16.5825 17.6332 16.8282 17.8438 17.1434C18.0544 17.4586 18.1668 17.8292 18.1668 18.2083C18.1668 18.7166 17.9649 19.2041 17.6054 19.5635C17.246 19.923 16.7585 20.1249 16.2501 20.1249Z" fill="white" fill-opacity="0.6" stroke="#1F2332" stroke-width="0.4"/>
</svg>
