<svg width="14" height="11" viewBox="0 0 14 11" fill="none" xmlns="http://www.w3.org/2000/svg">
<path d="M13.2558 1.55525C12.7804 1.76192 12.2702 1.904 11.7342 1.966C12.2819 1.64309 12.7004 1.13159 12.8993 0.523211C12.3774 0.827355 11.808 1.04133 11.2149 1.15613C10.9655 0.89466 10.6654 0.686746 10.333 0.545064C10.0005 0.403382 9.64269 0.330902 9.28132 0.332045C7.81786 0.332045 6.63211 1.501 6.63211 2.94121C6.63211 3.14529 6.65536 3.34421 6.70057 3.53538C5.65087 3.48553 4.62308 3.21743 3.68278 2.74817C2.74248 2.27891 1.91033 1.6188 1.2394 0.809961C1.00376 1.20663 0.879687 1.65962 0.88032 2.121C0.88032 3.02517 1.34919 3.826 2.05961 4.29229C1.6391 4.27911 1.2276 4.16716 0.858361 3.9655V3.99779C0.862352 4.60418 1.07639 5.19044 1.46405 5.65675C1.8517 6.12306 2.38899 6.4406 2.98445 6.55529C2.59353 6.65866 2.1845 6.67366 1.78707 6.59921C1.96032 7.12087 2.29169 7.57565 2.73518 7.9004C3.17867 8.22515 3.71228 8.40376 4.2619 8.41142C3.31894 9.13806 2.16119 9.53064 0.970736 9.52742C0.757611 9.52742 0.54707 9.5145 0.339111 9.49125C1.55389 10.2602 2.96244 10.6674 4.40011 10.6654C9.27486 10.6654 11.9396 6.68963 11.9396 3.24088L11.9305 2.90246C12.4502 2.53728 12.8992 2.08081 13.2558 1.55525Z" fill="white"/>
</svg>
