<svg width="18" height="20" viewBox="0 0 18 20" fill="none" xmlns="http://www.w3.org/2000/svg">
<path d="M14.0238 1H3.97619C2.33278 1.00064 1.00074 2.13851 1 3.54237V16.4576C1.00074 17.8615 2.33278 18.9994 3.97619 19H14.0238C15.6672 18.9994 16.9993 17.8615 17 16.4576V3.54237C16.9993 2.13851 15.6672 1.00064 14.0238 1ZM15.8095 16.4576C15.8067 17.299 15.0087 17.9807 14.0238 17.983H3.97619C2.99126 17.9807 2.19327 17.299 2.19048 16.4576V3.54237C2.19327 2.70101 2.99126 2.01933 3.97619 2.01695H14.0238C15.0087 2.01933 15.8067 2.70101 15.8095 3.54237V16.4576Z" fill="#A5A7AD" stroke="#A5A7AD" stroke-width="0.4"/>
<path d="M12.8739 9.57104H5.32745C4.96977 9.57104 4.67969 9.86092 4.67969 10.2188C4.67969 10.5767 4.96977 10.8666 5.32745 10.8666H12.8739C13.2316 10.8666 13.5217 10.5767 13.5217 10.2188C13.5217 9.86092 13.2316 9.57104 12.8739 9.57104Z" fill="#A5A7AD"/>
<path d="M12.8739 13.7166H5.32745C4.96977 13.7166 4.67969 14.0064 4.67969 14.3643C4.67969 14.7222 4.96977 15.0121 5.32745 15.0121H12.8739C13.2316 15.0121 13.5217 14.7222 13.5217 14.3643C13.5217 14.0064 13.2316 13.7166 12.8739 13.7166Z" fill="#A5A7AD"/>
<path d="M12.8739 5.42529H5.32745C4.96977 5.42529 4.67969 5.71517 4.67969 6.07306C4.67969 6.43095 4.96977 6.72082 5.32745 6.72082H12.8739C13.2316 6.72082 13.5217 6.43095 13.5217 6.07306C13.5217 5.71517 13.2316 5.42529 12.8739 5.42529Z" fill="#A5A7AD"/>
</svg>
