<svg width="48" height="44" viewBox="0 0 48 44" fill="none" xmlns="http://www.w3.org/2000/svg">
<path d="M29.8031 0.402948L29.8753 0.271558L29.8031 0.402955L46.6781 9.6842C46.9192 9.81686 47.1203 10.0118 47.2604 10.2487C47.4005 10.4856 47.4744 10.7558 47.4745 11.031V32.9685C47.4744 33.2437 47.4005 33.5139 47.2604 33.7508C47.1203 33.9877 46.9192 34.1827 46.6781 34.3153L29.8031 43.5966L29.8029 43.5967C29.576 43.7218 29.3211 43.7875 29.062 43.7875C28.8029 43.7875 28.5479 43.7218 28.321 43.5967L28.3209 43.5966L20.8282 39.4755L22.3103 36.7835L27.3022 39.5293L27.5245 39.6516V39.3979V21.3096V21.2209L27.4468 21.1782L11.4459 12.3779C11.2049 12.2451 11.0039 12.0502 10.8639 11.8133C10.7239 11.5763 10.65 11.3062 10.65 11.031C10.65 10.7558 10.7239 10.4857 10.8639 10.2488C11.0039 10.0119 11.2049 9.81693 11.4459 9.6842C11.4459 9.68419 11.4459 9.68418 11.4459 9.68417L28.3209 0.402955L28.2486 0.27154L28.3209 0.402948C28.5479 0.278051 28.8029 0.212561 29.062 0.212561C29.3211 0.212561 29.576 0.278051 29.8031 0.402948ZM29.1343 3.54546L29.062 3.50571L28.9897 3.54546L15.6163 10.8996L15.3772 11.031L15.6163 11.1625L28.9897 18.5166L29.062 18.5563L29.1343 18.5166L42.5077 11.1625L42.7467 11.031L42.5077 10.8996L29.1343 3.54546ZM44.3218 32.1026L44.3995 32.0599V31.9712V13.8829V13.6292L44.1772 13.7515L30.6772 21.1765L30.5995 21.2192V21.3079V39.3962V39.6499L30.8218 39.5276L44.3218 32.1026Z" fill="#FFA300" stroke="#121323" stroke-width="0.3"/>
<path d="M13.725 21.85H0.525V18.775H13.725V21.85Z" fill="#FFA300" stroke="#121323" stroke-width="0.3"/>
<path d="M17.1 35.35H3.9V32.275H17.1V35.35Z" fill="#FFA300" stroke="#121323" stroke-width="0.3"/>
<path d="M20.475 28.6H7.275V25.525H20.475V28.6Z" fill="#FFA300" stroke="#121323" stroke-width="0.3"/>
</svg>
