<svg width="41" height="49" viewBox="0 0 41 49" fill="none" xmlns="http://www.w3.org/2000/svg">
<path opacity="0.5" fill-rule="evenodd" clip-rule="evenodd" d="M37.3785 24.7654L37.3783 24.7651L37.3762 24.7614C37.1419 24.3479 36.9073 23.9341 36.672 23.5203C36.5277 23.2673 36.4259 22.9924 36.3706 22.7064C36.0135 20.5503 35.4585 18.4318 34.7125 16.3776C33.6576 13.7255 32.1809 11.3749 29.8902 9.59869C27.8272 8.01664 25.404 6.97087 22.8377 6.55501C22.5368 6.49454 22.4763 6.37408 22.4763 6.10292V1.88342C22.5111 1.54628 22.3922 1.21139 22.1526 0.971679C21.913 0.731969 21.5782 0.612936 21.241 0.647608H16.5104C16.1608 0.606889 15.8115 0.726257 15.5599 0.972421C15.3084 1.21858 15.1815 1.5652 15.2146 1.91561V6.31556L15.2146 6.31556C15.0639 6.3458 14.9132 6.37603 14.7927 6.40627C14.4102 6.49957 14.0218 6.58423 13.6322 6.66918L13.6322 6.66918L13.6322 6.66918L13.6321 6.66918L13.6321 6.66919L13.6321 6.66919C12.7632 6.85861 11.8879 7.04944 11.0556 7.34068C7.33802 8.51665 4.27267 11.1783 2.58681 14.6941C0.763396 18.4216 0.132001 22.6202 0.77845 26.7191C1.35156 31.0817 3.58637 35.0548 7.017 37.8102C7.23665 37.9711 7.36129 38.2312 7.34911 38.5032V47.3636C7.34911 48.358 7.77097 48.7779 8.76342 48.7779H23.4707C23.8139 48.8024 24.1509 48.6767 24.3942 48.4333C24.6375 48.19 24.7632 47.8531 24.7387 47.5099V45.2177C24.7387 45.1607 24.7455 45.1037 24.7526 45.0436L24.7526 45.0436C24.7606 44.9768 24.769 44.9062 24.769 44.8276H31.8478C32.043 44.842 32.239 44.8111 32.4203 44.7373C32.9329 44.5564 33.1738 44.1648 33.1738 43.4693V34.3676C33.1738 34.0662 33.264 33.9457 33.564 33.8852C34.618 33.6745 35.6644 33.4486 36.7109 33.2227C37.7589 32.9965 38.8071 32.7703 39.863 32.5592C40.3075 32.5222 40.6979 32.2493 40.8853 31.8445C41.0727 31.4397 41.0281 30.9654 40.7686 30.6026C39.6011 28.687 38.4921 26.7302 37.379 24.7662L37.3788 24.766L37.3787 24.7659L37.3786 24.7657L37.3785 24.7654ZM22.7458 30.2684C24.7486 29.2572 26.2087 27.4203 26.7419 25.241C27.2751 23.0616 26.828 20.7581 25.5183 18.9364C27.1876 20.6988 27.9263 23.1461 27.5108 25.5376C27.0953 27.9292 25.5744 29.984 23.4086 31.08C21.8811 32.0302 20.0608 32.3941 18.2854 32.1041C16.5528 31.7795 14.9631 30.9269 13.7342 29.6632C13.3407 29.2688 12.978 28.8449 12.6491 28.3952C12.7815 28.5534 12.9224 28.7043 13.071 28.8473C14.2997 30.111 15.8892 30.9638 17.6216 31.2887C19.3969 31.5829 21.2186 31.2202 22.7458 30.2684ZM22.4739 8.72214V9.17423C22.4739 11.4347 22.4739 13.6951 22.5027 15.9239C22.4624 16.1934 22.612 16.4555 22.8645 16.5579C22.961 16.5964 23.0521 16.647 23.1357 16.7086V9.53561C24.35 9.74068 25.5343 10.095 26.6617 10.5905C28.2313 11.2696 29.6235 12.3008 30.7305 13.6044C29.5207 11.9319 27.8881 10.611 25.9999 9.77702C24.8826 9.25447 23.6946 8.89904 22.4739 8.72214ZM17.4126 2.8429H20.2456V3.32522H17.7443V15.6516H17.4126V2.8429ZM22.205 18.6955C21.2577 17.9815 20.1061 17.5907 18.9199 17.5807L18.9228 17.5802C17.3242 17.5361 15.7775 18.1496 14.6438 19.2775C13.51 20.4053 12.8885 21.9488 12.9242 23.5476C13.0941 25.5854 14.2387 27.4155 15.9966 28.4601C14.4989 27.381 13.5598 25.6907 13.4348 23.849C13.3985 22.2582 14.0166 20.7222 15.1446 19.6C16.2725 18.4777 17.8116 17.8674 19.4022 17.9118C20.3912 17.9069 21.3619 18.1784 22.205 18.6955ZM3.00641 26.9231C2.4199 23.6684 2.72181 20.3157 3.88036 17.2181C5.50729 12.6972 8.76263 9.98465 13.4337 8.90003L13.4338 8.90002C14.0063 8.77956 14.5789 8.65911 15.1816 8.53865C15.1816 8.63829 15.1908 8.71958 15.199 8.79264C15.2058 8.85225 15.2119 8.90638 15.2119 8.9605V9.47258C14.9994 9.50552 14.7948 9.54728 14.5941 9.58825L14.5941 9.58826C14.4263 9.62251 14.2613 9.65621 14.0965 9.68375C9.45516 10.7689 6.2003 13.4809 4.54264 18.0018C3.38139 21.0988 3.07941 24.4522 3.6687 27.7069C4.07712 30.0568 5.01507 32.2829 6.41147 34.2166C4.63934 32.137 3.46262 29.6169 3.00593 26.9231H3.00641ZM9.42515 37.2919C9.48679 37.4765 9.51729 37.67 9.51537 37.8645C9.51537 40.6073 9.51537 43.3496 9.48562 46.0923V46.5444H10.1489V38.7087C10.2 38.1679 9.94382 37.6441 9.48562 37.3524L9.42515 37.2919Z" fill="#121323"/>
<path opacity="0.5" d="M22.6254 8.90037V16.1031C22.585 16.3727 22.7346 16.6348 22.9873 16.7371C25.5429 18.079 27.136 20.7348 27.1169 23.6211C27.0978 26.5075 25.4697 29.142 22.8966 30.45C21.3691 31.4002 19.5488 31.7641 17.7734 31.4741C16.0408 31.1495 14.4511 30.2969 13.2222 29.0332C11.8008 27.7316 10.9461 25.9248 10.8413 24.0003C10.7204 20.7152 12.1674 18.2455 15.0301 16.6166C15.2442 16.5241 15.377 16.307 15.3617 16.0743V9.20274C15.3649 9.06148 15.3548 8.92024 15.3315 8.78088C14.7287 8.90134 14.1562 8.99205 13.5836 9.14226C8.94227 10.2274 5.68742 12.9394 4.02975 17.4603C2.8685 20.5573 2.56653 23.9107 3.15581 27.1654C3.79155 30.9968 5.87363 34.4381 8.97251 36.7792C9.4307 37.0709 9.68686 37.5947 9.63577 38.1355V46.8164H22.6571C22.6571 46.0327 22.6874 45.249 22.6571 44.4657C22.5664 43.3206 23.1994 42.8983 24.1943 42.8983C26.3343 42.9285 28.4738 42.8983 30.6436 42.8983H31.1259V33.5834C31.1259 32.7699 31.3975 32.4081 32.1808 32.2574C33.3561 31.9862 34.5617 31.7448 35.737 31.4736C36.6109 31.2927 37.4849 31.0835 38.3891 30.9011C38.3218 30.7533 38.241 30.6121 38.1477 30.4792C37.0328 28.5202 35.8877 26.5611 34.7723 24.6026C34.6277 24.3391 34.5259 24.0543 34.471 23.7589C34.1322 21.4427 33.5148 19.1759 32.6324 17.0077C31.3063 13.9036 29.2873 11.432 26.1524 10.046C25.0559 9.4544 23.8613 9.06643 22.6264 8.90086L22.6254 8.90037Z" fill="#121323"/>
<path d="M17.2617 2.69531V15.504H20.0645V2.69531H17.2617Z" fill="#121323"/>
<path d="M24.5858 22.9743C24.5538 20.8923 23.4115 18.9862 21.5906 17.9762C19.7697 16.9663 17.5479 17.0065 15.7647 18.0817C13.9816 19.157 12.9091 21.1032 12.9524 23.185C13.0129 25.8975 15.6045 28.8812 18.7389 28.8812C21.7528 28.8812 24.5858 26.0482 24.5858 22.9743Z" fill="#121323"/>
<path fill-rule="evenodd" clip-rule="evenodd" d="M14.6998 1.27769V5.67764C14.548 5.70961 14.3986 5.75181 14.2526 5.80395C12.9917 6.05145 11.7444 6.36333 10.5154 6.73837C6.71823 8.0644 3.82475 10.4448 2.04663 14.0918C0.237519 17.8237 -0.393202 22.0178 0.238273 26.1168C0.811501 30.4792 3.0463 34.4522 6.47682 37.2074C6.7013 37.3642 6.82716 37.6272 6.80845 37.9004V46.7607C6.80845 47.7532 7.22835 48.1751 8.22275 48.1751H22.9257C23.2715 48.2101 23.6148 48.0878 23.8606 47.842C24.1064 47.5962 24.2287 47.2529 24.1937 46.9071V44.6149C24.1937 44.5589 24.2004 44.5026 24.2074 44.443L24.2075 44.443C24.2154 44.3759 24.2239 44.3045 24.2239 44.2248H31.3042C31.4987 44.2241 31.692 44.1935 31.8772 44.134C32.4191 43.9512 32.6302 43.5591 32.6302 42.866V33.7643C32.6302 33.4629 32.719 33.3424 33.0204 33.2819C33.6038 33.1569 34.1849 33.0295 34.765 32.9023C36.2826 32.5694 37.7931 32.2382 39.3194 31.9559C39.7776 31.9304 40.1848 31.6556 40.3799 31.2403C40.5751 30.8249 40.5266 30.3361 40.2538 29.9671C39.0166 27.9098 37.8469 25.8541 36.6654 23.7776C36.4963 23.4804 36.327 23.1829 36.1572 22.8848C36.0129 22.6319 35.911 22.3569 35.8558 22.0709C35.531 19.9081 34.9751 17.7863 34.1977 15.7421C32.3801 10.51 27.8033 6.72308 22.3234 5.91709C22.022 5.85516 21.9615 5.73616 21.9615 5.465V1.2455C21.9963 0.908357 21.8774 0.57347 21.6378 0.33376C21.3982 0.0940504 21.0633 -0.0249824 20.7262 0.00969H15.9956C15.6449 -0.0360374 15.2926 0.0816715 15.0398 0.329035C14.787 0.576398 14.6617 0.926067 14.6998 1.27769ZM21.9637 15.2597V8.05652V8.05603C23.1926 8.25017 24.3831 8.63729 25.4912 9.20308C28.6256 10.5896 30.6446 13.0607 31.9706 16.1649C32.8531 18.333 33.4705 20.5998 33.8092 22.916C33.8643 23.2114 33.966 23.4962 34.1106 23.7597C34.6656 24.7342 35.2278 25.7088 35.79 26.6834L35.7907 26.6846C36.3582 27.6685 36.9258 28.6524 37.4859 29.6364C37.5793 29.7692 37.6601 29.9105 37.7274 30.0582C37.237 30.1572 36.7555 30.264 36.278 30.3699L36.278 30.3699L36.2778 30.3699L36.2774 30.37C35.8748 30.4593 35.475 30.548 35.0753 30.6308C34.4876 30.7664 33.8924 30.8945 33.2971 31.0226C32.7019 31.1508 32.1067 31.2789 31.519 31.4145C30.7353 31.5652 30.4642 31.9271 30.4642 32.7405V42.0554H29.9818C29.2562 42.0554 28.5339 42.0588 27.8139 42.0622C26.3807 42.0689 24.9565 42.0756 23.5321 42.0554C22.5377 42.0554 21.9047 42.4773 21.9954 43.6224C22.0156 44.1448 22.0088 44.6671 22.0021 45.1894L22.0021 45.1898C21.9988 45.4509 21.9954 45.7119 21.9954 45.9731H8.97405V37.2922C9.02515 36.7514 8.76899 36.2276 8.31079 35.9359C5.21207 33.5946 3.13003 30.1534 2.4941 26.322C1.90508 23.0674 2.20705 19.714 3.36804 16.617C5.0257 12.0961 8.28056 9.38402 12.9219 8.2989C13.3291 8.19172 13.7364 8.11513 14.1545 8.0365L14.1545 8.03649L14.1545 8.03648C14.3243 8.00456 14.4958 7.9723 14.6698 7.93753C14.6929 8.0769 14.7031 8.21813 14.7 8.35938V15.2309C14.7151 15.4636 14.5824 15.6807 14.3684 15.7733C11.5057 17.4021 10.0587 19.8718 10.1796 23.1569C10.284 25.0815 11.1388 26.8884 12.5605 28.1899C13.7894 29.4534 15.3789 30.306 17.1112 30.6308C18.8867 30.9208 20.7072 30.5569 22.2349 29.6066C24.808 28.2987 26.4361 25.6642 26.4552 22.7778C26.4743 19.8914 24.8812 17.2356 22.3256 15.8937C22.0729 15.7914 21.9233 15.5293 21.9637 15.2597ZM24.0724 22.6451C24.0396 20.5636 22.8971 18.6581 21.0764 17.6486C19.2558 16.6392 17.0344 16.6795 15.2516 17.7544C13.4687 18.8293 12.3961 20.7749 12.439 22.8563C12.4994 25.5688 15.091 28.5525 18.2254 28.5525C21.2394 28.552 24.0715 25.7199 24.0724 22.6451ZM16.9316 14.9923V2.18359H19.7344V14.9923H16.9316Z" fill="#FFA300"/>
<path d="M18.5876 21.9809C18.3427 21.9558 18.0982 22.0316 17.9105 22.1908C17.7228 22.3501 17.6082 22.579 17.5932 22.8246C17.5986 23.1585 17.7817 23.4641 18.0735 23.6263C18.3653 23.7886 18.7215 23.7828 19.0079 23.6112C19.2943 23.4396 19.4674 23.1282 19.462 22.7944C19.4595 22.5688 19.3646 22.3541 19.1994 22.2003C19.0342 22.0466 18.8133 21.9673 18.5881 21.9809H18.5876Z" fill="#121323"/>
<path fill-rule="evenodd" clip-rule="evenodd" d="M18.121 25.4769C19.635 25.5015 20.8889 24.3073 20.9381 22.7938C20.9786 22.0522 20.6974 21.329 20.1664 20.8096C19.6354 20.2902 18.9062 20.0249 18.1656 20.0818C16.68 20.0508 15.4448 21.2186 15.3926 22.7036C15.3925 24.2179 16.6069 25.4523 18.121 25.4769ZM17.5789 22.0078C17.7667 21.8486 18.0113 21.7728 18.2562 21.798V21.7975C18.4801 21.7893 18.698 21.8705 18.8619 22.0232C19.0259 22.1759 19.1224 22.3875 19.1301 22.6114C19.1385 23.1275 18.7269 23.5526 18.2108 23.561C17.6948 23.5693 17.2696 23.1577 17.2613 22.6417C17.2765 22.396 17.3912 22.1671 17.5789 22.0078Z" fill="#FFA300"/>
<path d="M34.6224 39.1337C28.2029 39.1337 24.556 36.8732 22.6252 34.9444C21.2991 33.7121 20.3394 32.1373 19.8522 30.3938C19.6608 29.6031 20.1466 28.807 20.9373 28.6157C21.728 28.4243 22.524 28.9101 22.7154 29.7008C22.7759 30.0022 24.5238 36.1802 34.5897 36.1802H34.8306C35.6546 36.1717 36.3294 36.8328 36.3379 37.6567C36.3463 38.4806 35.6853 39.1554 34.8614 39.1639C34.7841 39.1371 34.702 39.1268 34.6204 39.1337H34.6224Z" fill="#FFA300"/>
</svg>
