<svg width="44" height="48" viewBox="0 0 44 48" fill="none" xmlns="http://www.w3.org/2000/svg">
<g clip-path="url(#clip0_40_2149)">
<path d="M7.12224 28.737C7.41589 28.9336 7.74795 29.0275 8.07649 29.0275C8.63079 29.0275 9.17503 28.7597 9.50649 28.2645C12.2837 24.1144 16.9263 21.6367 21.9254 21.6367C26.9097 21.6367 31.5447 24.103 34.3239 28.2341C34.8538 29.0218 35.9218 29.2307 36.7093 28.7008C37.4969 28.1709 37.7059 27.1029 37.176 26.3153C34.9554 23.0148 31.7718 20.5794 28.1337 19.2766C30.3155 17.4944 31.7109 14.7841 31.7109 11.7539C31.7109 6.39923 27.3547 2.04297 22 2.04297C16.6453 2.04297 12.2891 6.39923 12.2891 11.7539C12.2891 14.7624 13.6642 17.4556 15.819 19.2383C12.1241 20.5363 8.89256 23.0012 6.64967 26.3527C6.12176 27.1416 6.33334 28.2091 7.12224 28.737ZM22 5.48047C25.4592 5.48047 28.2734 8.29475 28.2734 11.7539C28.2734 15.2131 25.4592 18.0273 22 18.0273C18.5408 18.0273 15.7266 15.2131 15.7266 11.7539C15.7266 8.29475 18.5408 5.48047 22 5.48047ZM28.8542 32.476L26.2919 34.3244C25.9107 34.5994 25.7511 35.087 25.8968 35.532L26.9286 38.5228C26.9722 38.656 26.9889 38.7861 26.9833 38.9102C26.9468 39.7134 25.9401 40.2629 25.2017 39.7303L22.6395 37.8813C22.4489 37.7438 22.2245 37.6751 22.0001 37.6751C21.7757 37.6751 21.5513 37.7438 21.3607 37.8813L18.7985 39.7303C18.0601 40.2629 17.0485 39.7134 17.0166 38.9102C17.0117 38.7861 17.0289 38.6559 17.0724 38.5228L18.1033 35.532C18.249 35.087 18.0894 34.5994 17.7082 34.3244L15.1459 32.476C14.2934 31.861 14.7315 30.4023 15.7853 30.4023H18.9524C19.4237 30.4023 19.8413 30.2209 19.9869 29.7759L20.9656 26.7658C21.1284 26.2683 21.5642 26.0195 22.0001 26.0195C22.436 26.0195 22.8718 26.2683 23.0346 26.7658L24.0133 29.7759C24.1589 30.2209 24.5765 30.4023 25.0478 30.4023H28.2149C29.2686 30.4023 29.7067 31.861 28.8542 32.476ZM43.5495 38.4916L40.9872 40.3401C40.606 40.6151 40.4464 41.1026 40.5921 41.5476L41.6239 44.5384C41.6675 44.6716 41.6842 44.8017 41.6787 44.9258C41.6421 45.729 40.6354 46.2785 39.897 45.7459L37.3348 43.8969C37.1442 43.7594 36.9198 43.6907 36.6954 43.6907C36.471 43.6907 36.2466 43.7594 36.056 43.8969L33.4938 45.7459C32.7554 46.2785 31.7439 45.729 31.7119 44.9258C31.707 44.8017 31.7242 44.6715 31.7677 44.5384L32.7987 41.5476C32.9443 41.1026 32.7847 40.6151 32.4035 40.3401L29.8412 38.4916C28.9887 37.8767 29.4268 36.418 30.4806 36.418H33.6477C34.119 36.418 34.5367 36.2366 34.6822 35.7916L35.6609 32.7814C35.8237 32.2839 36.2595 32.0352 36.6954 32.0352C37.1313 32.0352 37.5671 32.2839 37.7299 32.7814L38.7086 35.7916C38.8542 36.2366 39.2718 36.418 39.7431 36.418H42.9102C43.9639 36.418 44.402 37.8767 43.5495 38.4916ZM14.1589 38.4916L11.5966 40.3401C11.2154 40.6151 11.0558 41.1026 11.2014 41.5476L12.2333 44.5384C12.2769 44.6716 12.2936 44.8017 12.288 44.9258C12.2515 45.729 11.2448 46.2785 10.5064 45.7459L7.94406 43.8969C7.75345 43.7594 7.52907 43.6907 7.30469 43.6907C7.08031 43.6907 6.85592 43.7594 6.66531 43.8969L4.10309 45.7459C3.36471 46.2785 2.35314 45.729 2.32117 44.9258C2.31627 44.8017 2.33346 44.6715 2.37703 44.5384L3.40794 41.5476C3.5536 41.1026 3.39402 40.6151 3.0128 40.3401L0.450484 38.4916C-0.402016 37.8767 0.0360936 36.418 1.08986 36.418H4.257C4.72828 36.418 5.14594 36.2366 5.29152 35.7916L6.27017 32.7814C6.43302 32.2839 6.86881 32.0352 7.30469 32.0352C7.74056 32.0352 8.17635 32.2839 8.3392 32.7814L9.31786 35.7916C9.46352 36.2366 9.88109 36.418 10.3524 36.418H13.5195C14.5733 36.418 15.0114 37.8767 14.1589 38.4916Z" fill="#FFA300" stroke="#121323" stroke-width="0.7"/>
<path d="M26.9833 38.8906L26.1342 38.852C26.1323 38.8949 26.0979 38.9813 25.981 39.0387C25.8783 39.0891 25.7824 39.0815 25.6991 39.0215C25.699 39.0214 25.699 39.0214 25.699 39.0214L23.1369 37.1725L23.1367 37.1724C22.7973 36.9276 22.3979 36.8055 22.0001 36.8055C21.6023 36.8055 21.2029 36.9276 20.8634 37.1724L20.8633 37.1725L18.3012 39.0214C18.3012 39.0214 18.3011 39.0214 18.3011 39.0215C18.218 39.0813 18.1208 39.0894 18.0168 39.0384C17.8992 38.9808 17.8676 38.8959 17.8659 38.8571C17.8651 38.8368 17.8673 38.8089 17.8788 38.7721L18.9069 35.7894L18.907 35.7894L18.9112 35.7769C19.1726 34.9782 18.885 34.1058 18.2055 33.6156L15.6432 31.7671L15.6432 31.7671C15.569 31.7136 15.513 31.6034 15.5637 31.437C15.5874 31.3593 15.6279 31.3043 15.6645 31.2738C15.6944 31.2489 15.7289 31.2328 15.7853 31.2328H18.9524C19.6104 31.2328 20.4872 30.9608 20.7948 30.0207L20.7953 30.0192L21.7734 27.0107C21.7734 27.0107 21.7734 27.0106 21.7734 27.0106C21.7956 26.9429 21.8277 26.9102 21.8569 26.8905C21.8915 26.8671 21.9415 26.85 22.0001 26.85C22.0587 26.85 22.1087 26.8671 22.1433 26.8905C22.1725 26.9102 22.2046 26.9429 22.2267 27.0106C22.2268 27.0106 22.2268 27.0107 22.2268 27.0107L23.2049 30.0192L23.2054 30.0209C23.5131 30.9607 24.3897 31.2328 25.0478 31.2328H28.2149C28.2713 31.2328 28.3057 31.2489 28.3356 31.2738C28.3722 31.3043 28.4127 31.3593 28.4364 31.437C28.4871 31.6033 28.4311 31.7136 28.3569 31.7671L28.8542 32.4565L28.3569 31.7671L25.7946 33.6156C25.1151 34.1058 24.8275 34.9782 25.0889 35.7769L25.0888 35.7769L25.0932 35.7896L26.1222 38.7721C26.1332 38.8073 26.1351 38.8336 26.1342 38.8524L26.9833 38.8906ZM26.9833 38.8906C26.9889 38.7665 26.9722 38.6364 26.9286 38.5032L25.2017 39.7107C25.9401 40.2434 26.9468 39.6939 26.9833 38.8906ZM13.6616 37.7828L13.6616 37.7828C13.7358 37.7293 13.7918 37.619 13.741 37.4527C13.7173 37.375 13.6769 37.3199 13.6403 37.2894C13.6104 37.2645 13.5759 37.2484 13.5195 37.2484H10.3524C9.69426 37.2484 8.8177 36.9763 8.51004 36.0365L8.50951 36.0348L7.53138 33.0263C7.53132 33.0261 7.53125 33.0259 7.53119 33.0257C7.509 32.9584 7.47699 32.9258 7.44792 32.9061C7.41325 32.8827 7.36333 32.8656 7.30469 32.8656C7.24605 32.8656 7.19612 32.8827 7.16146 32.9061C7.13238 32.9258 7.10036 32.9584 7.07818 33.0258C7.07811 33.026 7.07805 33.0262 7.07799 33.0263L6.09987 36.0348L6.09938 36.0363C5.79184 36.9764 4.91498 37.2484 4.257 37.2484H1.08986C1.03348 37.2484 0.999021 37.2645 0.969119 37.2894C0.932472 37.3199 0.892041 37.375 0.86834 37.4527C0.817607 37.619 0.873623 37.7293 0.947766 37.7828L0.947775 37.7828L3.51008 39.6312C3.51008 39.6312 3.51008 39.6312 3.51009 39.6312C4.18963 40.1214 4.47719 40.9938 4.21576 41.7925L4.21164 41.8051L4.21154 41.805L3.18343 44.7877C3.17196 44.8244 3.16973 44.8522 3.1705 44.8724C3.17204 44.9111 3.20352 44.9963 3.32141 45.0541C3.42542 45.105 3.52263 45.0969 3.60569 45.0371C3.60573 45.0371 3.60577 45.037 3.60581 45.037L6.16792 43.1881L6.16803 43.1881C6.50748 42.9432 6.90686 42.8212 7.30469 42.8212C7.70252 42.8212 8.1019 42.9432 8.44135 43.1881L8.44145 43.1881L11.0037 45.037C11.0037 45.037 11.0037 45.037 11.0038 45.0371C11.0871 45.0971 11.183 45.1048 11.2857 45.0543C11.4024 44.997 11.4369 44.9108 11.4389 44.8678L13.6616 37.7828ZM13.6616 37.7828L11.0993 39.6312C11.0993 39.6312 11.0993 39.6312 11.0993 39.6312C10.4197 40.1214 10.1322 40.9938 10.3936 41.7925L10.3935 41.7925M13.6616 37.7828L10.3935 41.7925M10.3935 41.7925L10.3979 41.8053M10.3935 41.7925L10.3979 41.8053M10.3979 41.8053L11.4269 44.7877M10.3979 41.8053L11.4269 44.7877M11.4269 44.7877C11.4378 44.8227 11.4397 44.8488 11.4389 44.8676L11.4269 44.7877ZM37.9002 36.0348L37.9008 36.0365C38.2084 36.9763 39.085 37.2484 39.7431 37.2484H42.9102C42.9666 37.2484 43.001 37.2645 43.0309 37.2894C43.0675 37.3199 43.108 37.3749 43.1317 37.4526C43.1824 37.619 43.1264 37.7293 43.0522 37.7828L43.5495 38.4721L43.0522 37.7828L40.4899 39.6312C39.8104 40.1214 39.5228 40.9938 39.7842 41.7925L39.7841 41.7925L39.7885 41.8053L40.8175 44.7876C40.8285 44.8229 40.8304 44.8492 40.8295 44.868C40.8274 44.911 40.7928 44.9971 40.6763 45.0543C40.5736 45.1048 40.4777 45.0971 40.3944 45.0371C40.3944 45.0371 40.3943 45.037 40.3943 45.037L37.8322 43.1881L37.8321 43.1881C37.4926 42.9432 37.0932 42.8212 36.6954 42.8212C36.2976 42.8212 35.8982 42.9432 35.5587 43.1881L35.5586 43.1881L32.9965 45.037C32.9965 45.037 32.9964 45.0371 32.9964 45.0371C32.9133 45.0969 32.8161 45.105 32.7121 45.0541C32.5945 44.9964 32.5629 44.9115 32.5612 44.8727C32.5604 44.8525 32.5626 44.8245 32.5742 44.7877L33.6023 41.805L33.6024 41.8051L33.6065 41.7925C33.8679 40.9938 33.5803 40.1214 32.9008 39.6312L30.3385 37.7828L29.8412 38.4721L30.3385 37.7828C30.2643 37.7293 30.2083 37.619 30.2591 37.4527C30.2828 37.375 30.3232 37.3199 30.3598 37.2894C30.3897 37.2645 30.4242 37.2484 30.4806 37.2484H33.6477C34.3057 37.2484 35.1826 36.9764 35.4901 36.0363L35.4906 36.0348L36.4687 33.0263C36.4688 33.0262 36.4688 33.026 36.4689 33.0259C36.4911 32.9584 36.5231 32.9258 36.5522 32.9061C36.5868 32.8827 36.6368 32.8656 36.6954 32.8656C36.754 32.8656 36.804 32.8827 36.8386 32.9061C36.8677 32.9258 36.8998 32.9584 36.9219 33.0259C36.922 33.026 36.922 33.0262 36.9221 33.0263L37.9002 36.0348Z" fill="#121323" stroke="#FFA300" stroke-width="1.7"/>
</g>
<defs>
<clipPath id="clip0_40_2149">
<rect width="44" height="48" fill="white"/>
</clipPath>
</defs>
</svg>
