<svg width="75" height="59" viewBox="0 0 75 59" fill="none" xmlns="http://www.w3.org/2000/svg">
<path d="M21.1712 3.2C17.7712 5.8 14.4712 9 13.1712 13.2C10.9712 20.2 15.4712 25.5 21.9712 24.6C29.8712 23.5 38.0712 15.1 46.6712 17.2C51.3712 18.4 54.4712 21.5 55.2712 26.2C56.0712 30.9 55.2712 35.8 55.2712 40.6C55.2712 45.4 56.3712 50.6 59.8712 53.8C63.4712 57 72.7712 56.7 74.9712 52.4C73.4712 57.9 67.3712 58.8 62.5712 58.2C57.7712 57.7 53.4712 54.2 51.8712 49.7C50.4712 45.8 50.9712 41.6 50.8712 37.5C50.7712 33.4 49.7712 28.9 46.5712 26.4C37.9712 19.9 27.6712 35.5 16.5712 35.8C8.77117 36.1 0.671168 30 0.0711681 22.3C-0.528832 14.6 2.77119 7.1 5.97119 0C10.4712 0.4 16.5712 2.9 21.1712 3.2Z" fill="#3772FF"/>
</svg>
